# This file uses centimeters as units for non-parametric coordinates.

g default
v -0.435937 -0.252702 0.500000
v -0.130388 -0.355199 0.495708
v 0.167034 -0.357233 0.372465
v 0.497221 -0.253033 0.274388
v -0.463593 -0.027078 0.492945
v -0.148918 -0.098155 0.500000
v 0.123047 -0.112653 0.407616
v 0.410817 -0.038288 0.294927
v -0.499159 0.139365 0.273603
v -0.168676 0.151725 0.387258
v 0.077484 0.166667 0.410759
v 0.342552 0.167491 0.341706
v -0.498337 0.445992 0.101929
v -0.166667 0.469451 0.273603
v 0.122858 0.365669 0.305915
v 0.410817 0.366621 0.267566
v -0.473471 0.468243 -0.033875
v -0.140764 0.483879 0.081180
v 0.150533 0.500000 0.150522
v 0.456380 0.492276 0.135464
v -0.445253 0.496555 -0.120365
v -0.058961 0.495095 -0.061694
v 0.201577 0.455072 -0.062815
v 0.500000 0.411393 -0.023901
v -0.394082 0.495177 -0.396770
v 0.020354 0.488722 -0.313276
v 0.257464 0.407259 -0.268742
v 0.500000 0.343570 -0.247956
v -0.447490 0.168084 -0.446768
v -0.059641 0.161793 -0.395691
v 0.206777 0.123055 -0.390401
v 0.500000 0.103125 -0.346267
v -0.500000 -0.037736 -0.430441
v -0.163067 -0.104843 -0.463049
v 0.166667 -0.079929 -0.462047
v 0.500000 0.009737 -0.417155
v -0.500000 -0.272380 -0.377197
v -0.166667 -0.365543 -0.428022
v 0.166667 -0.321421 -0.421734
v 0.500000 -0.186918 -0.363007
v -0.498869 -0.366704 -0.097107
v -0.166667 -0.436940 -0.132645
v 0.166667 -0.412993 -0.128957
v 0.500000 -0.307545 -0.102708
v -0.463721 -0.357696 0.167886
v -0.148918 -0.431488 0.166667
v 0.166667 -0.429698 0.103235
v 0.500000 -0.351875 0.040422
v 0.500000 -0.079929 -0.128714
v 0.456380 -0.112138 0.074641
v 0.497221 0.122738 -0.098668
v 0.410817 0.164413 0.081056
v -0.500000 -0.103606 -0.132645
v -0.482252 -0.098155 0.166667
v -0.479808 0.165747 -0.146987
v -0.500000 0.151725 0.055935
vt 0.375000 0.000000
vt 0.458333 0.000000
vt 0.541667 0.000000
vt 0.625000 0.000000
vt 0.375000 0.083333
vt 0.458333 0.083333
vt 0.541667 0.083333
vt 0.625000 0.083333
vt 0.375000 0.166667
vt 0.458333 0.166667
vt 0.541667 0.166667
vt 0.625000 0.166667
vt 0.375000 0.250000
vt 0.458333 0.250000
vt 0.541667 0.250000
vt 0.625000 0.250000
vt 0.375000 0.333333
vt 0.458333 0.333333
vt 0.541667 0.333333
vt 0.625000 0.333333
vt 0.375000 0.416667
vt 0.458333 0.416667
vt 0.541667 0.416667
vt 0.625000 0.416667
vt 0.375000 0.500000
vt 0.458333 0.500000
vt 0.541667 0.500000
vt 0.625000 0.500000
vt 0.375000 0.583333
vt 0.458333 0.583333
vt 0.541667 0.583333
vt 0.625000 0.583333
vt 0.375000 0.666667
vt 0.458333 0.666667
vt 0.541667 0.666667
vt 0.625000 0.666667
vt 0.375000 0.750000
vt 0.458333 0.750000
vt 0.541667 0.750000
vt 0.625000 0.750000
vt 0.375000 0.833333
vt 0.458333 0.833333
vt 0.541667 0.833333
vt 0.625000 0.833333
vt 0.375000 0.916667
vt 0.458333 0.916667
vt 0.541667 0.916667
vt 0.625000 0.916667
vt 0.375000 1.000000
vt 0.458333 1.000000
vt 0.541667 1.000000
vt 0.625000 1.000000
vt 0.875000 0.000000
vt 0.791667 0.000000
vt 0.708333 0.000000
vt 0.875000 0.083333
vt 0.791667 0.083333
vt 0.708333 0.083333
vt 0.875000 0.166667
vt 0.791667 0.166667
vt 0.708333 0.166667
vt 0.875000 0.250000
vt 0.791667 0.250000
vt 0.708333 0.250000
vt 0.125000 0.000000
vt 0.208333 0.000000
vt 0.291667 0.000000
vt 0.125000 0.083333
vt 0.208333 0.083333
vt 0.291667 0.083333
vt 0.125000 0.166667
vt 0.208333 0.166667
vt 0.291667 0.166667
vt 0.125000 0.250000
vt 0.208333 0.250000
vt 0.291667 0.250000
vn -0.581397 -0.517372 0.627936
vn 0.015961 -0.710862 0.703150
vn 0.096743 0.199511 0.975108
vn -0.600145 0.271067 0.752562
vn 0.296214 -0.683751 0.666890
vn 0.294350 0.024356 0.955387
vn 0.690066 -0.424552 0.586144
vn 0.703450 0.099906 0.703688
vn -0.136800 0.427400 0.893653
vn -0.717343 0.311833 0.623040
vn 0.134330 0.244804 0.960222
vn 0.586691 0.125691 0.799997
vn -0.200123 0.653639 0.729868
vn -0.646527 0.584953 0.489728
vn 0.069042 0.582264 0.810063
vn 0.643692 0.314324 0.697755
vn -0.017051 0.988141 0.152599
vn -0.721922 0.691964 -0.003817
vn 0.076494 0.969476 0.232948
vn 0.600342 0.754237 0.265924
vn 0.054162 0.998450 -0.012850
vn -0.597483 0.799670 -0.059506
vn 0.160378 0.973261 -0.164443
vn 0.800494 0.599170 0.014272
vn 0.170248 0.722815 -0.669742
vn -0.326307 0.640040 -0.695610
vn 0.221051 0.691593 -0.687631
vn 0.650703 0.527375 -0.546316
vn 0.110255 0.201869 -0.973187
vn -0.474276 0.192866 -0.858990
vn 0.111459 0.331255 -0.936935
vn 0.688401 0.287131 -0.666078
vn -0.026600 -0.016251 -0.999514
vn -0.657898 0.034906 -0.752297
vn 0.091701 0.031583 -0.995286
vn 0.590110 0.082494 -0.803097
vn -0.085173 -0.727454 -0.680850
vn -0.626222 -0.533190 -0.568819
vn 0.205211 -0.698659 -0.685393
vn 0.634072 -0.517006 -0.575028
vn -0.091212 -0.985568 -0.142605
vn -0.678413 -0.732233 -0.059927
vn 0.190786 -0.958750 -0.210713
vn 0.669137 -0.719776 -0.184874
vn -0.100574 -0.983280 0.151805
vn -0.663697 -0.729132 0.166954
vn 0.170336 -0.978065 0.119893
vn 0.640263 -0.759893 0.112368
vn 0.993173 0.036417 0.110824
vn 0.973153 0.176411 0.147829
vn 0.984388 -0.010567 0.175695
vn 0.957130 -0.019000 0.289035
vn -0.999593 0.024341 0.014863
vn -0.996047 -0.059939 0.065551
vn -0.990528 0.106143 -0.087104
vn -0.999339 0.000973 -0.036353
s 1
g Sasso_1
f 1/1/1 2/2/2 6/6/3 5/5/4
f 2/2/2 3/3/5 7/7/6 6/6/3
f 3/3/5 4/4/7 8/8/8 7/7/6
f 5/5/4 6/6/3 10/10/9 9/9/10
f 6/6/3 7/7/6 11/11/11 10/10/9
f 7/7/6 8/8/8 12/12/12 11/11/11
f 9/9/10 10/10/9 14/14/13 13/13/14
f 10/10/9 11/11/11 15/15/15 14/14/13
f 11/11/11 12/12/12 16/16/16 15/15/15
f 13/13/14 14/14/13 18/18/17 17/17/18
f 14/14/13 15/15/15 19/19/19 18/18/17
f 15/15/15 16/16/16 20/20/20 19/19/19
f 17/17/18 18/18/17 22/22/21 21/21/22
f 18/18/17 19/19/19 23/23/23 22/22/21
f 19/19/19 20/20/20 24/24/24 23/23/23
f 21/21/22 22/22/21 26/26/25 25/25/26
f 22/22/21 23/23/23 27/27/27 26/26/25
f 23/23/23 24/24/24 28/28/28 27/27/27
f 25/25/26 26/26/25 30/30/29 29/29/30
f 26/26/25 27/27/27 31/31/31 30/30/29
f 27/27/27 28/28/28 32/32/32 31/31/31
f 29/29/30 30/30/29 34/34/33 33/33/34
f 30/30/29 31/31/31 35/35/35 34/34/33
f 31/31/31 32/32/32 36/36/36 35/35/35
f 33/33/34 34/34/33 38/38/37 37/37/38
f 34/34/33 35/35/35 39/39/39 38/38/37
f 35/35/35 36/36/36 40/40/40 39/39/39
f 37/37/38 38/38/37 42/42/41 41/41/42
f 38/38/37 39/39/39 43/43/43 42/42/41
f 39/39/39 40/40/40 44/44/44 43/43/43
f 41/41/42 42/42/41 46/46/45 45/45/46
f 42/42/41 43/43/43 47/47/47 46/46/45
f 43/43/43 44/44/44 48/48/48 47/47/47
f 45/45/46 46/46/45 2/50/2 1/49/1
f 46/46/45 47/47/47 3/51/5 2/50/2
f 47/47/47 48/48/48 4/52/7 3/51/5
f 44/54/44 40/53/40 36/56/36 49/57/49
f 48/55/48 44/54/44 49/57/49 50/58/50
f 4/4/7 48/55/48 50/58/50 8/8/8
f 49/57/49 36/56/36 32/59/32 51/60/51
f 50/58/50 49/57/49 51/60/51 52/61/52
f 8/8/8 50/58/50 52/61/52 12/12/12
f 51/60/51 32/59/32 28/62/28 24/63/24
f 52/61/52 51/60/51 24/63/24 20/64/20
f 12/12/12 52/61/52 20/64/20 16/16/16
f 37/65/38 41/66/42 53/69/53 33/68/34
f 41/66/42 45/67/46 54/70/54 53/69/53
f 45/67/46 1/1/1 5/5/4 54/70/54
f 33/68/34 53/69/53 55/72/55 29/71/30
f 53/69/53 54/70/54 56/73/56 55/72/55
f 54/70/54 5/5/4 9/9/10 56/73/56
f 29/71/30 55/72/55 21/75/22 25/74/26
f 55/72/55 56/73/56 17/76/18 21/75/22
f 56/73/56 9/9/10 13/13/14 17/76/18
