# This file uses centimeters as units for non-parametric coordinates.

g default
v 6.253751 -5.836600 0.002652
v 6.476179 -5.702809 0.002652
v 6.624797 -5.502575 0.002652
v 6.676987 -5.266383 0.002652
v 6.676987 5.209049 0.002652
v 6.624797 5.445241 0.002652
v 6.476179 5.645474 0.002652
v 6.253751 5.779266 0.002652
v 5.991383 5.826247 0.002652
v 0.505860 5.826247 0.002652
v 0.243490 5.779266 0.002652
v 0.021064 5.645474 0.002652
v -0.127555 5.445241 0.002652
v -0.179745 5.209049 0.002652
v -0.179745 -5.266383 0.002652
v -0.127555 -5.502575 0.002652
v 0.021064 -5.702809 0.002652
v 0.243490 -5.836600 0.002652
v 0.505860 -5.883580 0.002652
v 5.991383 -5.883580 0.002652
vt 0.000000 0.000000
vt 0.625000 0.000000
vt 0.625000 0.007399
vt 0.625000 0.013177
vt 0.625000 0.236823
vt 0.625000 0.242601
vt 0.625000 0.250000
vt 0.613201 0.250000
vt 0.600003 0.250000
vt 0.399998 0.250000
vt 0.386799 0.250000
vt 0.375000 0.250000
vt 0.375000 0.242601
vt 0.375000 0.236823
vt 0.375000 0.013177
vt 0.375000 0.007399
vt 0.375000 0.000000
vt 0.000000 0.000000
vt 0.399998 0.000000
vt 0.600003 0.000000
vn -0.000000 0.000000 1.000000
vn -0.000000 0.000000 1.000000
vn -0.000000 0.000000 1.000000
vn -0.000000 0.000000 1.000000
vn -0.000000 0.000000 1.000000
vn -0.000000 0.000000 1.000000
vn -0.000000 0.000000 1.000000
vn -0.000000 0.000000 1.000000
vn -0.000000 0.000000 1.000000
vn -0.000000 0.000000 1.000000
vn -0.000000 0.000000 1.000000
vn -0.000000 0.000000 1.000000
vn -0.000000 0.000000 1.000000
vn -0.000000 0.000000 1.000000
vn -0.000000 0.000000 1.000000
vn -0.000000 0.000000 1.000000
vn -0.000000 0.000000 1.000000
vn -0.000000 0.000000 1.000000
vn -0.000000 0.000000 1.000000
vn -0.000000 0.000000 1.000000
s off
g Schermo_Telefono
f 1/1/1 2/2/2 3/3/3 4/4/4 5/5/5 6/6/6 7/7/7 8/8/8 9/9/9 10/10/10 11/11/11 12/12/12 13/13/13 14/14/14 15/15/15 16/16/16 17/17/17 18/18/18 19/19/19 20/20/20
