# This file uses centimeters as units for non-parametric coordinates.

g default
v 6.571067 5.517646 0.002652
v 6.476186 5.645481 0.002652
v 6.253759 5.779256 0.002652
v 5.991383 5.826245 0.002652
v 0.505862 5.826245 0.002652
v 0.243491 5.779256 0.002652
v 0.021064 5.645481 0.002652
v -0.073819 5.517646 0.002652
v 0.021064 5.517648 0.002652
v 0.243491 5.517649 0.002652
v 0.505862 5.517649 0.002652
v 5.991384 5.517649 0.002652
v 6.253759 5.517649 0.002652
v 6.476186 5.517648 0.002652
v 6.253759 -5.836590 0.002652
v 6.476186 -5.702816 0.002652
v 6.624802 -5.502582 0.002652
v 6.676991 -5.266382 0.002652
v 6.676991 5.209047 0.002652
v 6.624802 5.445248 0.002652
v -0.127554 5.445248 0.002652
v -0.179746 5.209047 0.002652
v -0.179746 -5.266382 0.002652
v -0.127554 -5.502582 0.002652
v 0.021064 -5.702816 0.002652
v 0.243491 -5.836590 0.002652
v 0.505862 -5.883577 0.002652
v 5.991383 -5.883577 0.002652
vt 0.772757 0.946516
vt 0.765040 0.956930
vt 0.746940 0.967839
vt 0.725581 0.971683
vt 0.278955 0.972062
vt 0.257591 0.968255
vt 0.239472 0.957377
vt 0.231737 0.946976
vt 0.239462 0.946969
vt 0.257572 0.946954
vt 0.278934 0.946937
vt 0.725559 0.946557
vt 0.746922 0.946539
vt 0.765031 0.946523
vt 0.746138 0.022087
vt 0.764257 0.032965
vt 0.776372 0.049257
vt 0.780637 0.068484
vt 0.781360 0.921383
vt 0.777127 0.940618
vt 0.227357 0.941086
vt 0.223091 0.921858
vt 0.222366 0.068958
vt 0.226599 0.049724
vt 0.238686 0.033411
vt 0.256786 0.022502
vt 0.278145 0.018659
vt 0.724773 0.018280
vn 0.000000 0.000000 1.000000
vn 0.000000 0.000000 1.000000
vn 0.000000 0.000000 1.000000
vn 0.000000 0.000000 1.000000
vn 0.000000 0.000000 1.000000
vn 0.000000 0.000000 1.000000
vn 0.000000 0.000000 1.000000
vn 0.000000 0.000000 1.000000
vn 0.000000 0.000000 1.000000
vn 0.000000 0.000000 1.000000
vn 0.000000 0.000000 1.000000
vn 0.000000 0.000000 1.000000
vn 0.000000 0.000000 1.000000
vn 0.000000 0.000000 1.000000
vn 0.000000 0.000000 1.000000
vn 0.000000 0.000000 1.000000
vn 0.000000 0.000000 1.000000
vn 0.000000 0.000000 1.000000
vn 0.000000 0.000000 1.000000
vn 0.000000 0.000000 1.000000
vn 0.000000 0.000000 1.000000
vn 0.000000 0.000000 1.000000
vn 0.000000 0.000000 1.000000
vn 0.000000 0.000000 1.000000
vn 0.000000 0.000000 1.000000
vn 0.000000 0.000000 1.000000
vn 0.000000 0.000000 1.000000
vn 0.000000 0.000000 1.000000
s 1
g Schermo_Telefono Mano_e_Telefono
f 1/1/1 2/2/2 3/3/3 4/4/4 5/5/5 6/6/6 7/7/7 8/8/8 9/9/9 10/10/10 11/11/11 12/12/12 13/13/13 14/14/14
f 15/15/15 16/16/16 17/17/17 18/18/18 19/19/19 20/20/20 1/1/1 14/14/14 13/13/13 12/12/12 11/11/11 10/10/10 9/9/9 8/8/8 21/21/21 22/22/22 23/23/23 24/24/24 25/25/25 26/26/26 27/27/27 28/28/28
