# This file uses centimeters as units for non-parametric coordinates.

mtllib spazzolino.mtl
g default
v -0.243100 0.259335 -3.645486
v 0.243100 0.259335 -3.645486
v -0.243100 0.259335 -2.352212
v 0.243100 0.259335 -2.352212
v -0.243100 0.852665 -3.645486
v 0.243100 0.852665 -3.645486
v -0.243100 0.852665 -2.352212
v 0.243100 0.852665 -2.352212
v -0.306661 0.000000 3.721932
v -0.306661 0.259335 3.721932
v 0.306661 0.259335 3.721932
v 0.306661 0.000000 3.721932
v -0.306661 0.000000 -3.721932
v -0.306661 0.259335 -3.721932
v 0.306661 0.259335 -3.721932
v 0.306661 0.000000 -3.721932
vt 0.855605 0.199409
vt 0.854827 0.271227
vt 0.943248 0.200358
vt 0.663793 0.269156
vt 0.942469 0.272177
vt 0.853877 0.358870
vt 0.664571 0.197338
vt 0.957685 0.807444
vt 0.895823 0.872121
vt 0.110833 0.121300
vt 0.172694 0.056624
vt 0.960501 0.933984
vt 0.934342 0.961331
vt 0.869665 0.899469
vt 0.662843 0.356799
vt 0.576929 0.196388
vt 0.856555 0.111766
vt 0.019996 0.086788
vt 0.983842 0.780095
vt 0.084674 0.148649
vt 0.855193 0.898462
vt 0.718811 0.768017
vt 0.807803 0.964148
vt 0.806152 0.949733
vt 0.022812 0.213327
vt 0.669770 0.819289
vt 0.198851 0.029276
vt 0.046153 0.059439
vt 0.665521 0.109695
vt 0.576150 0.268206
vn 0.000000 1.000000 0.000000
vn 0.000000 1.000000 0.000000
vn 0.000000 1.000000 0.000000
vn 0.000000 1.000000 0.000000
vn 0.000000 0.000000 -1.000000
vn 0.000000 0.000000 -1.000000
vn 0.000000 0.000000 -1.000000
vn 0.000000 0.000000 -1.000000
vn -1.000000 0.000000 0.000000
vn -1.000000 0.000000 0.000000
vn -1.000000 0.000000 0.000000
vn -1.000000 0.000000 0.000000
vn 0.000000 0.000000 1.000000
vn 0.000000 0.000000 1.000000
vn 0.000000 0.000000 1.000000
vn 0.000000 0.000000 1.000000
vn 1.000000 0.000000 0.000000
vn 1.000000 0.000000 0.000000
vn 1.000000 0.000000 0.000000
vn 1.000000 0.000000 0.000000
vn -1.000000 -0.000000 0.000000
vn -1.000000 -0.000000 0.000000
vn -1.000000 -0.000000 0.000000
vn -1.000000 -0.000000 0.000000
vn 0.000000 0.000001 -1.000000
vn 0.000000 0.000001 -1.000000
vn 0.000000 0.000001 -1.000000
vn 0.000000 0.000001 -1.000000
vn 0.000000 0.000000 1.000000
vn 0.000000 0.000000 1.000000
vn 0.000000 0.000000 1.000000
vn 0.000000 0.000000 1.000000
vn 1.000000 0.000000 0.000000
vn 1.000000 0.000000 0.000000
vn 1.000000 0.000000 0.000000
vn 1.000000 0.000000 0.000000
vn 0.000000 -1.000000 -0.000000
vn 0.000000 -1.000000 -0.000000
vn 0.000000 -1.000000 -0.000000
vn 0.000000 -1.000000 -0.000000
vn -0.000001 1.000000 0.000000
vn -0.000001 1.000000 0.000000
vn -0.000000 1.000000 0.000000
vn -0.000000 1.000000 -0.000000
vn 0.000001 1.000000 0.000000
vn 0.000001 1.000000 0.000000
vn 0.000000 1.000000 -0.000000
vn 0.000000 1.000000 0.000000
s off
g pCube1
usemtl initialShadingGroup
f 6/1/1 5/2/2 7/4/3 8/7/4
f 2/3/5 1/5/6 5/2/7 6/1/8
f 1/6/9 3/15/10 7/4/11 5/2/12
f 3/30/13 4/16/14 8/7/15 7/4/16
f 4/29/17 2/17/18 6/1/19 8/7/20
f 13/8/21 9/11/22 10/27/23 14/19/24
f 13/12/25 14/13/26 15/14/27 16/9/28
f 9/28/29 12/10/30 11/20/31 10/18/32
f 12/10/33 16/9/34 15/14/35 11/20/36
f 13/8/37 16/9/38 12/10/39 9/11/40
s 1
f 15/14/41 2/21/42 4/22/43 11/20/44
f 14/23/45 1/24/46 2/21/42 15/14/41
f 10/25/47 11/20/44 4/22/43 3/26/48
f 10/25/47 3/26/48 1/24/46 14/23/45
