# This file uses centimeters as units for non-parametric coordinates.

g default
v 0.137645 -0.046181 -0.697235
v 0.126214 -0.046652 -0.712017
v 0.107878 -0.046643 -0.718007
v 0.089166 -0.046174 -0.712878
v 0.077423 -0.045361 -0.698617
v 0.077054 -0.044359 -0.680533
v 0.088314 -0.043675 -0.665699
v 0.107535 -0.043722 -0.659910
v 0.126685 -0.044389 -0.665137
v 0.138030 -0.045340 -0.679348
v 0.166681 -0.041764 -0.705536
v 0.144209 -0.042451 -0.734730
v 0.108428 -0.042449 -0.746555
v 0.071832 -0.041821 -0.736262
v 0.049569 -0.040401 -0.708143
v 0.049008 -0.038325 -0.672093
v 0.070417 -0.036964 -0.642641
v 0.108561 -0.037151 -0.632243
v 0.146884 -0.038629 -0.642879
v 0.168388 -0.040728 -0.670300
v 0.218111 -0.023172 -0.720732
v 0.175210 -0.023477 -0.775964
v 0.108823 -0.021396 -0.795993
v 0.041221 -0.021576 -0.775698
v 0.003180 -0.019527 -0.726568
v 0.003481 -0.015410 -0.660032
v 0.040782 -0.014785 -0.602247
v 0.112273 -0.017433 -0.585386
v 0.186372 -0.020225 -0.606172
v 0.223880 -0.022695 -0.654926
v 0.256254 0.010473 -0.732657
v 0.198087 0.010835 -0.806855
v 0.107961 0.013768 -0.829186
v 0.017431 0.011602 -0.803943
v -0.029142 0.013823 -0.744068
v -0.025608 0.020297 -0.658464
v 0.022017 0.019331 -0.576683
v 0.117782 0.012269 -0.553935
v 0.219582 0.009425 -0.582414
v 0.266739 0.009631 -0.645197
v 0.277932 0.056375 -0.740059
v 0.210485 0.060230 -0.822814
v 0.105921 0.062471 -0.842462
v 0.001496 0.057898 -0.823006
v -0.048397 0.058782 -0.761634
v -0.039620 0.066199 -0.666403
v 0.015212 0.063652 -0.569897
v 0.125446 0.052967 -0.540340
v 0.244799 0.050478 -0.575236
v 0.294738 0.054772 -0.643741
v 0.282901 0.102204 -0.742482
v 0.212103 0.111270 -0.823824
v 0.103785 0.112188 -0.842294
v -0.004856 0.107534 -0.835688
v -0.055425 0.111198 -0.777770
v -0.042240 0.116795 -0.677766
v 0.017991 0.111678 -0.579908
v 0.133263 0.096389 -0.544822
v 0.258359 0.094339 -0.582016
v 0.304277 0.099489 -0.649183
v 0.272869 0.141121 -0.740186
v 0.204986 0.151713 -0.812877
v 0.102765 0.150690 -0.833249
v 0.000260 0.149707 -0.837839
v -0.047881 0.157036 -0.783865
v -0.035281 0.163958 -0.685752
v 0.025371 0.155846 -0.595383
v 0.137687 0.136081 -0.560815
v 0.254550 0.132415 -0.593611
v 0.294937 0.135297 -0.657197
v 0.250097 0.167946 -0.733236
v 0.190426 0.173226 -0.790577
v 0.102585 0.172275 -0.813645
v 0.016338 0.178245 -0.824122
v -0.024507 0.188051 -0.776013
v -0.016140 0.194556 -0.689932
v 0.037535 0.187582 -0.612534
v 0.136265 0.170802 -0.582226
v 0.234050 0.163499 -0.607648
v 0.269658 0.163221 -0.664255
v 0.216646 0.176879 -0.720833
v 0.170431 0.175830 -0.760850
v 0.103381 0.178448 -0.784267
v 0.040878 0.189131 -0.792750
v 0.010680 0.198378 -0.755112
v 0.015856 0.204317 -0.692914
v 0.057853 0.200682 -0.637538
v 0.131307 0.189047 -0.614780
v 0.201656 0.181838 -0.630295
v 0.230349 0.178402 -0.671552
v 0.171861 0.175353 -0.709720
v 0.145624 0.173986 -0.731825
v 0.107337 0.177939 -0.746553
v 0.072799 0.186183 -0.748426
v 0.055809 0.192878 -0.728412
v 0.060081 0.196589 -0.697901
v 0.084953 0.195088 -0.670584
v 0.124046 0.189103 -0.658360
v 0.160986 0.183200 -0.664480
v 0.178199 0.178918 -0.684449
v 0.107311 -0.046928 -0.688859
v 0.114984 0.181693 -0.704391
vt 0.000000 0.100000
vt 0.000000 0.050000
vt 0.100000 0.050000
vt 0.100000 0.100000
vt 0.200000 0.050000
vt 0.200000 0.100000
vt 0.300000 0.050000
vt 0.300000 0.100000
vt 0.400000 0.050000
vt 0.400000 0.100000
vt 0.500000 0.050000
vt 0.500000 0.100000
vt 0.600000 0.050000
vt 0.600000 0.100000
vt 0.700000 0.050000
vt 0.700000 0.100000
vt 0.800000 0.050000
vt 0.800000 0.100000
vt 0.900000 0.050000
vt 0.900000 0.100000
vt 1.000000 0.050000
vt 1.000000 0.100000
vt 0.000000 0.200000
vt 0.100000 0.200000
vt 0.200000 0.200000
vt 0.300000 0.200000
vt 0.400000 0.200000
vt 0.500000 0.200000
vt 0.600000 0.200000
vt 0.700000 0.200000
vt 0.800000 0.200000
vt 0.900000 0.200000
vt 1.000000 0.200000
vt 0.000000 0.300000
vt 0.100000 0.300000
vt 0.200000 0.300000
vt 0.300000 0.300000
vt 0.400000 0.300000
vt 0.500000 0.300000
vt 0.600000 0.300000
vt 0.700000 0.300000
vt 0.800000 0.300000
vt 0.900000 0.300000
vt 1.000000 0.300000
vt 0.000000 0.400000
vt 0.100000 0.400000
vt 0.200000 0.400000
vt 0.300000 0.400000
vt 0.400000 0.400000
vt 0.500000 0.400000
vt 0.600000 0.400000
vt 0.700000 0.400000
vt 0.800000 0.400000
vt 0.900000 0.400000
vt 1.000000 0.400000
vt 0.000000 0.500000
vt 0.100000 0.500000
vt 0.200000 0.500000
vt 0.300000 0.500000
vt 0.400000 0.500000
vt 0.500000 0.500000
vt 0.600000 0.500000
vt 0.700000 0.500000
vt 0.800000 0.500000
vt 0.900000 0.500000
vt 1.000000 0.500000
vt 0.000000 0.600000
vt 0.100000 0.600000
vt 0.200000 0.600000
vt 0.300000 0.600000
vt 0.400000 0.600000
vt 0.500000 0.600000
vt 0.600000 0.600000
vt 0.700000 0.600000
vt 0.800000 0.600000
vt 0.900000 0.600000
vt 1.000000 0.600000
vt 0.000000 0.700000
vt 0.100000 0.700000
vt 0.200000 0.700000
vt 0.300000 0.700000
vt 0.400000 0.700000
vt 0.500000 0.700000
vt 0.600000 0.700000
vt 0.700000 0.700000
vt 0.800000 0.700000
vt 0.900000 0.700000
vt 1.000000 0.700000
vt 0.000000 0.800000
vt 0.100000 0.800000
vt 0.200000 0.800000
vt 0.300000 0.800000
vt 0.400000 0.800000
vt 0.500000 0.800000
vt 0.600000 0.800000
vt 0.700000 0.800000
vt 0.800000 0.800000
vt 0.900000 0.800000
vt 1.000000 0.800000
vt 0.000000 0.900000
vt 0.100000 0.900000
vt 0.200000 0.900000
vt 0.300000 0.900000
vt 0.400000 0.900000
vt 0.500000 0.900000
vt 0.600000 0.900000
vt 0.700000 0.900000
vt 0.800000 0.900000
vt 0.900000 0.900000
vt 1.000000 0.900000
vt 0.075000 0.000000
vt 0.175000 0.000000
vt 0.275000 0.000000
vt 0.375000 0.000000
vt 0.475000 0.000000
vt 0.575000 0.000000
vt 0.675000 0.000000
vt 0.775000 0.000000
vt 0.875000 0.000000
vt 0.975000 0.000000
vt 0.025000 1.000000
vt 0.125000 1.000000
vt 0.225000 1.000000
vt 0.325000 1.000000
vt 0.425000 1.000000
vt 0.525000 1.000000
vt 0.625000 1.000000
vt 0.725000 1.000000
vt 0.825000 1.000000
vt 0.925000 1.000000
vn 0.279189 -0.955165 -0.098553
vn 0.120618 -0.992591 -0.014658
vn 0.074696 -0.993143 -0.089932
vn 0.175924 -0.948238 -0.264377
vn -0.007394 -0.992896 -0.118757
vn -0.008480 -0.938992 -0.343835
vn -0.092204 -0.991839 -0.088057
vn -0.199000 -0.939913 -0.277420
vn -0.152547 -0.988295 -0.001799
vn -0.351551 -0.933702 -0.067917
vn -0.155781 -0.982550 0.101624
vn -0.361089 -0.920037 0.152138
vn -0.100317 -0.978468 0.180378
vn -0.218534 -0.923924 0.314017
vn -0.021796 -0.978004 0.207444
vn -0.026122 -0.930135 0.366287
vn 0.053115 -0.982653 0.177685
vn 0.130312 -0.944698 0.300940
vn 0.110320 -0.989960 0.088369
vn 0.257715 -0.959953 0.109881
vn 0.499669 -0.841376 -0.205956
vn 0.310494 -0.818731 -0.482984
vn -0.008981 -0.794866 -0.606718
vn -0.316818 -0.812047 -0.490109
vn -0.585722 -0.799685 -0.132037
vn -0.618520 -0.753115 0.224166
vn -0.387682 -0.768297 0.509336
vn -0.023670 -0.801715 0.597237
vn 0.254421 -0.839374 0.480335
vn 0.482383 -0.864855 0.139041
vn 0.737003 -0.589123 -0.331300
vn 0.445878 -0.524347 -0.725433
vn -0.003030 -0.487905 -0.872892
vn -0.417678 -0.558866 -0.716389
vn -0.815460 -0.545678 -0.193029
vn -0.859692 -0.418275 0.293215
vn -0.555924 -0.407513 0.724487
vn -0.009686 -0.478146 0.878227
vn 0.412755 -0.570100 0.710366
vn 0.749185 -0.639698 0.171779
vn 0.860715 -0.288773 -0.419261
vn 0.495335 -0.198069 -0.845820
vn 0.016166 -0.193158 -0.981035
vn -0.438524 -0.314681 -0.841827
vn -0.933289 -0.283024 -0.221062
vn -0.942252 -0.096282 0.320767
vn -0.603097 -0.010606 0.797597
vn 0.011462 -0.072965 0.997269
vn 0.512649 -0.211216 0.832213
vn 0.924447 -0.338661 0.175231
vn 0.886281 0.039885 -0.461428
vn 0.492552 0.100777 -0.864429
vn 0.054023 0.038719 -0.997789
vn -0.411801 -0.085604 -0.907244
vn -0.970230 -0.032170 -0.240041
vn -0.935775 0.121548 0.330987
vn -0.576142 0.245339 0.779660
vn 0.026624 0.226921 0.973549
vn 0.538423 0.129446 0.832673
vn 0.988198 0.027239 0.150741
vn 0.796975 0.435708 -0.418318
vn 0.444608 0.462889 -0.766849
vn 0.099310 0.363624 -0.926237
vn -0.340072 0.274289 -0.899509
vn -0.910518 0.324460 -0.256285
vn -0.874180 0.366242 0.318868
vn -0.512113 0.419575 0.749465
vn 0.036320 0.426161 0.903918
vn 0.485680 0.439831 0.755423
vn 0.886440 0.446199 0.123006
vn 0.504478 0.827189 -0.247511
vn 0.263464 0.867174 -0.422606
vn 0.117649 0.817085 -0.564385
vn -0.141309 0.751438 -0.644495
vn -0.583207 0.782256 -0.218964
vn -0.618630 0.749129 0.236859
vn -0.345315 0.703075 0.621646
vn 0.053868 0.674896 0.735944
vn 0.367001 0.717031 0.592602
vn 0.601942 0.791704 0.104261
vn 0.131653 0.988910 -0.068739
vn 0.055154 0.996460 -0.063450
vn 0.109853 0.985725 -0.127592
vn 0.090453 0.966509 -0.240165
vn -0.067125 0.987914 -0.139716
vn -0.113904 0.992273 0.049189
vn -0.023777 0.970331 0.240609
vn 0.102955 0.949980 0.294854
vn 0.197195 0.952334 0.232754
vn 0.240346 0.970352 0.025495
vn -0.002354 0.998640 -0.052078
vn 0.032744 0.999409 -0.010457
vn 0.129839 0.991309 -0.021165
vn 0.205455 0.975277 -0.081385
vn 0.196284 0.973483 -0.117489
vn 0.178550 0.978758 -0.100757
vn 0.173144 0.982224 -0.072511
vn 0.145073 0.986856 -0.071204
vn 0.094677 0.992318 -0.079630
vn 0.038672 0.995466 -0.086900
vn -0.016443 -0.998581 0.050657
vn 0.175391 0.972108 -0.155704
s 1
g polySurface11 Polpette
f 11/1/1 1/2/2 2/3/3 12/4/4
f 12/4/4 2/3/3 3/5/5 13/6/6
f 13/6/6 3/5/5 4/7/7 14/8/8
f 14/8/8 4/7/7 5/9/9 15/10/10
f 15/10/10 5/9/9 6/11/11 16/12/12
f 16/12/12 6/11/11 7/13/13 17/14/14
f 17/14/14 7/13/13 8/15/15 18/16/16
f 18/16/16 8/15/15 9/17/17 19/18/18
f 19/18/18 9/17/17 10/19/19 20/20/20
f 20/20/20 10/19/19 1/21/2 11/22/1
f 21/23/21 11/1/1 12/4/4 22/24/22
f 22/24/22 12/4/4 13/6/6 23/25/23
f 23/25/23 13/6/6 14/8/8 24/26/24
f 24/26/24 14/8/8 15/10/10 25/27/25
f 25/27/25 15/10/10 16/12/12 26/28/26
f 26/28/26 16/12/12 17/14/14 27/29/27
f 27/29/27 17/14/14 18/16/16 28/30/28
f 28/30/28 18/16/16 19/18/18 29/31/29
f 29/31/29 19/18/18 20/20/20 30/32/30
f 30/32/30 20/20/20 11/22/1 21/33/21
f 31/34/31 21/23/21 22/24/22 32/35/32
f 32/35/32 22/24/22 23/25/23 33/36/33
f 33/36/33 23/25/23 24/26/24 34/37/34
f 34/37/34 24/26/24 25/27/25 35/38/35
f 35/38/35 25/27/25 26/28/26 36/39/36
f 36/39/36 26/28/26 27/29/27 37/40/37
f 37/40/37 27/29/27 28/30/28 38/41/38
f 38/41/38 28/30/28 29/31/29 39/42/39
f 39/42/39 29/31/29 30/32/30 40/43/40
f 40/43/40 30/32/30 21/33/21 31/44/31
f 41/45/41 31/34/31 32/35/32 42/46/42
f 42/46/42 32/35/32 33/36/33 43/47/43
f 43/47/43 33/36/33 34/37/34 44/48/44
f 44/48/44 34/37/34 35/38/35 45/49/45
f 45/49/45 35/38/35 36/39/36 46/50/46
f 46/50/46 36/39/36 37/40/37 47/51/47
f 47/51/47 37/40/37 38/41/38 48/52/48
f 48/52/48 38/41/38 39/42/39 49/53/49
f 49/53/49 39/42/39 40/43/40 50/54/50
f 50/54/50 40/43/40 31/44/31 41/55/41
f 51/56/51 41/45/41 42/46/42 52/57/52
f 52/57/52 42/46/42 43/47/43 53/58/53
f 53/58/53 43/47/43 44/48/44 54/59/54
f 54/59/54 44/48/44 45/49/45 55/60/55
f 55/60/55 45/49/45 46/50/46 56/61/56
f 56/61/56 46/50/46 47/51/47 57/62/57
f 57/62/57 47/51/47 48/52/48 58/63/58
f 58/63/58 48/52/48 49/53/49 59/64/59
f 59/64/59 49/53/49 50/54/50 60/65/60
f 60/65/60 50/54/50 41/55/41 51/66/51
f 61/67/61 51/56/51 52/57/52 62/68/62
f 62/68/62 52/57/52 53/58/53 63/69/63
f 63/69/63 53/58/53 54/59/54 64/70/64
f 64/70/64 54/59/54 55/60/55 65/71/65
f 65/71/65 55/60/55 56/61/56 66/72/66
f 66/72/66 56/61/56 57/62/57 67/73/67
f 67/73/67 57/62/57 58/63/58 68/74/68
f 68/74/68 58/63/58 59/64/59 69/75/69
f 69/75/69 59/64/59 60/65/60 70/76/70
f 70/76/70 60/65/60 51/66/51 61/77/61
f 71/78/71 61/67/61 62/68/62 72/79/72
f 72/79/72 62/68/62 63/69/63 73/80/73
f 73/80/73 63/69/63 64/70/64 74/81/74
f 74/81/74 64/70/64 65/71/65 75/82/75
f 75/82/75 65/71/65 66/72/66 76/83/76
f 76/83/76 66/72/66 67/73/67 77/84/77
f 77/84/77 67/73/67 68/74/68 78/85/78
f 78/85/78 68/74/68 69/75/69 79/86/79
f 79/86/79 69/75/69 70/76/70 80/87/80
f 80/87/80 70/76/70 61/77/61 71/88/71
f 81/89/81 71/78/71 72/79/72 82/90/82
f 82/90/82 72/79/72 73/80/73 83/91/83
f 83/91/83 73/80/73 74/81/74 84/92/84
f 84/92/84 74/81/74 75/82/75 85/93/85
f 85/93/85 75/82/75 76/83/76 86/94/86
f 86/94/86 76/83/76 77/84/77 87/95/87
f 87/95/87 77/84/77 78/85/78 88/96/88
f 88/96/88 78/85/78 79/86/79 89/97/89
f 89/97/89 79/86/79 80/87/80 90/98/90
f 90/98/90 80/87/80 71/88/71 81/99/81
f 91/100/91 81/89/81 82/90/82 92/101/92
f 92/101/92 82/90/82 83/91/83 93/102/93
f 93/102/93 83/91/83 84/92/84 94/103/94
f 94/103/94 84/92/84 85/93/85 95/104/95
f 95/104/95 85/93/85 86/94/86 96/105/96
f 96/105/96 86/94/86 87/95/87 97/106/97
f 97/106/97 87/95/87 88/96/88 98/107/98
f 98/107/98 88/96/88 89/97/89 99/108/99
f 99/108/99 89/97/89 90/98/90 100/109/100
f 100/109/100 90/98/90 81/99/81 91/110/91
f 2/3/3 1/2/2 101/111/101
f 3/5/5 2/3/3 101/112/101
f 4/7/7 3/5/5 101/113/101
f 5/9/9 4/7/7 101/114/101
f 6/11/11 5/9/9 101/115/101
f 7/13/13 6/11/11 101/116/101
f 8/15/15 7/13/13 101/117/101
f 9/17/17 8/15/15 101/118/101
f 10/19/19 9/17/17 101/119/101
f 1/21/2 10/19/19 101/120/101
f 102/121/102 91/100/91 92/101/92
f 102/122/102 92/101/92 93/102/93
f 102/123/102 93/102/93 94/103/94
f 102/124/102 94/103/94 95/104/95
f 102/125/102 95/104/95 96/105/96
f 102/126/102 96/105/96 97/106/97
f 102/127/102 97/106/97 98/107/98
f 102/128/102 98/107/98 99/108/99
f 102/129/102 99/108/99 100/109/100
f 102/130/102 100/109/100 91/110/91
