# This file uses centimeters as units for non-parametric coordinates.

g default
v -0.079494 -0.046181 -0.369567
v -0.090640 -0.046652 -0.384405
v -0.108976 -0.046643 -0.390395
v -0.127688 -0.046174 -0.385266
v -0.139431 -0.045361 -0.371006
v -0.139800 -0.044430 -0.353061
v -0.128683 -0.043778 -0.338258
v -0.110030 -0.043760 -0.332233
v -0.091283 -0.044389 -0.337305
v -0.079690 -0.045340 -0.351565
v -0.050802 -0.041764 -0.377800
v -0.072611 -0.042451 -0.407140
v -0.108426 -0.042449 -0.418944
v -0.145022 -0.041821 -0.408651
v -0.167284 -0.040439 -0.380606
v -0.167846 -0.038707 -0.345224
v -0.146722 -0.037503 -0.316021
v -0.110369 -0.037390 -0.304683
v -0.073434 -0.038629 -0.314581
v -0.050963 -0.040728 -0.342194
v 0.000277 -0.023172 -0.393129
v -0.040725 -0.023477 -0.448967
v -0.107684 -0.021396 -0.468614
v -0.175633 -0.021566 -0.447967
v -0.213674 -0.019609 -0.396609
v -0.213373 -0.016838 -0.331860
v -0.176608 -0.016965 -0.278312
v -0.110537 -0.018403 -0.258481
v -0.041012 -0.020225 -0.276474
v -0.000215 -0.022695 -0.325880
v 0.038292 0.010798 -0.405602
v -0.015669 0.010835 -0.481318
v -0.107412 0.013768 -0.502566
v -0.199423 0.011841 -0.473359
v -0.245995 0.013727 -0.405534
v -0.242462 0.017107 -0.323913
v -0.196074 0.014409 -0.255119
v -0.110449 0.009887 -0.228700
v -0.017547 0.009425 -0.250786
v 0.035570 0.009825 -0.314758
v 0.059426 0.060448 -0.413916
v 0.000277 0.062029 -0.499652
v -0.107369 0.062630 -0.517236
v -0.215340 0.058737 -0.482144
v -0.265251 0.058262 -0.406098
v -0.256474 0.060201 -0.320600
v -0.204784 0.054408 -0.249469
v -0.110834 0.048019 -0.219532
v -0.005921 0.052011 -0.241709
v 0.053388 0.057632 -0.311410
v 0.063464 0.115022 -0.417208
v 0.005216 0.120275 -0.502885
v -0.107380 0.115750 -0.515519
v -0.221547 0.108607 -0.478233
v -0.272279 0.109488 -0.400724
v -0.259094 0.107398 -0.320890
v -0.204939 0.098482 -0.258560
v -0.112044 0.091925 -0.229286
v -0.005721 0.101176 -0.248775
v 0.054421 0.109096 -0.315487
v 0.052215 0.165511 -0.415278
v -0.001037 0.170925 -0.492651
v -0.107412 0.159917 -0.501624
v -0.216138 0.150139 -0.465472
v -0.264735 0.153500 -0.394252
v -0.252135 0.153090 -0.323857
v -0.199554 0.144136 -0.272468
v -0.112717 0.138160 -0.247887
v -0.014622 0.147946 -0.264164
v 0.042157 0.155165 -0.323762
v 0.027463 0.203468 -0.407979
v -0.017900 0.202930 -0.469534
v -0.107557 0.187669 -0.475751
v -0.199425 0.178483 -0.444613
v -0.241361 0.182908 -0.386482
v -0.232994 0.185875 -0.329372
v -0.188122 0.181973 -0.287185
v -0.112179 0.182374 -0.268099
v -0.029944 0.189388 -0.282890
v 0.019399 0.194998 -0.333673
v -0.009922 0.220352 -0.396170
v -0.043770 0.213746 -0.435614
v -0.107987 0.200181 -0.440481
v -0.173828 0.193823 -0.418427
v -0.205742 0.197155 -0.377233
v -0.202095 0.202862 -0.336999
v -0.168914 0.205934 -0.306709
v -0.111573 0.210667 -0.294453
v -0.051076 0.216903 -0.306908
v -0.014185 0.219665 -0.345328
v -0.057031 0.219229 -0.380806
v -0.075758 0.212772 -0.398156
v -0.109406 0.205752 -0.401221
v -0.142967 0.202905 -0.390634
v -0.161698 0.204693 -0.369441
v -0.161055 0.209467 -0.348305
v -0.142593 0.214477 -0.332831
v -0.111272 0.218963 -0.328155
v -0.078591 0.222171 -0.336617
v -0.058404 0.222486 -0.356596
v -0.109543 -0.046928 -0.361247
v -0.110718 0.213412 -0.364365
vt 0.000000 0.100000
vt 0.000000 0.050000
vt 0.100000 0.050000
vt 0.100000 0.100000
vt 0.200000 0.050000
vt 0.200000 0.100000
vt 0.300000 0.050000
vt 0.300000 0.100000
vt 0.400000 0.050000
vt 0.400000 0.100000
vt 0.500000 0.050000
vt 0.500000 0.100000
vt 0.600000 0.050000
vt 0.600000 0.100000
vt 0.700000 0.050000
vt 0.700000 0.100000
vt 0.800000 0.050000
vt 0.800000 0.100000
vt 0.900000 0.050000
vt 0.900000 0.100000
vt 1.000000 0.050000
vt 1.000000 0.100000
vt 0.000000 0.200000
vt 0.100000 0.200000
vt 0.200000 0.200000
vt 0.300000 0.200000
vt 0.400000 0.200000
vt 0.500000 0.200000
vt 0.600000 0.200000
vt 0.700000 0.200000
vt 0.800000 0.200000
vt 0.900000 0.200000
vt 1.000000 0.200000
vt 0.000000 0.300000
vt 0.100000 0.300000
vt 0.200000 0.300000
vt 0.300000 0.300000
vt 0.400000 0.300000
vt 0.500000 0.300000
vt 0.600000 0.300000
vt 0.700000 0.300000
vt 0.800000 0.300000
vt 0.900000 0.300000
vt 1.000000 0.300000
vt 0.000000 0.400000
vt 0.100000 0.400000
vt 0.200000 0.400000
vt 0.300000 0.400000
vt 0.400000 0.400000
vt 0.500000 0.400000
vt 0.600000 0.400000
vt 0.700000 0.400000
vt 0.800000 0.400000
vt 0.900000 0.400000
vt 1.000000 0.400000
vt 0.000000 0.500000
vt 0.100000 0.500000
vt 0.200000 0.500000
vt 0.300000 0.500000
vt 0.400000 0.500000
vt 0.500000 0.500000
vt 0.600000 0.500000
vt 0.700000 0.500000
vt 0.800000 0.500000
vt 0.900000 0.500000
vt 1.000000 0.500000
vt 0.000000 0.600000
vt 0.100000 0.600000
vt 0.200000 0.600000
vt 0.300000 0.600000
vt 0.400000 0.600000
vt 0.500000 0.600000
vt 0.600000 0.600000
vt 0.700000 0.600000
vt 0.800000 0.600000
vt 0.900000 0.600000
vt 1.000000 0.600000
vt 0.000000 0.700000
vt 0.100000 0.700000
vt 0.200000 0.700000
vt 0.300000 0.700000
vt 0.400000 0.700000
vt 0.500000 0.700000
vt 0.600000 0.700000
vt 0.700000 0.700000
vt 0.800000 0.700000
vt 0.900000 0.700000
vt 1.000000 0.700000
vt 0.000000 0.800000
vt 0.100000 0.800000
vt 0.200000 0.800000
vt 0.300000 0.800000
vt 0.400000 0.800000
vt 0.500000 0.800000
vt 0.600000 0.800000
vt 0.700000 0.800000
vt 0.800000 0.800000
vt 0.900000 0.800000
vt 1.000000 0.800000
vt 0.000000 0.900000
vt 0.100000 0.900000
vt 0.200000 0.900000
vt 0.300000 0.900000
vt 0.400000 0.900000
vt 0.500000 0.900000
vt 0.600000 0.900000
vt 0.700000 0.900000
vt 0.800000 0.900000
vt 0.900000 0.900000
vt 1.000000 0.900000
vt 0.075000 0.000000
vt 0.175000 0.000000
vt 0.275000 0.000000
vt 0.375000 0.000000
vt 0.475000 0.000000
vt 0.575000 0.000000
vt 0.675000 0.000000
vt 0.775000 0.000000
vt 0.875000 0.000000
vt 0.975000 0.000000
vt 0.025000 1.000000
vt 0.125000 1.000000
vt 0.225000 1.000000
vt 0.325000 1.000000
vt 0.425000 1.000000
vt 0.525000 1.000000
vt 0.625000 1.000000
vt 0.725000 1.000000
vt 0.825000 1.000000
vt 0.925000 1.000000
vn 0.287665 -0.954073 -0.083624
vn 0.123560 -0.992276 -0.011062
vn 0.075482 -0.993123 -0.089494
vn 0.175676 -0.949325 -0.260615
vn -0.007415 -0.992897 -0.118745
vn -0.010005 -0.939400 -0.342677
vn -0.091787 -0.991872 -0.088124
vn -0.201500 -0.939333 -0.277580
vn -0.149627 -0.988729 -0.005183
vn -0.346853 -0.934627 -0.078519
vn -0.150892 -0.983977 0.094982
vn -0.349072 -0.926837 0.138284
vn -0.097299 -0.980256 0.172140
vn -0.213140 -0.929859 0.299890
vn -0.019948 -0.979244 0.201702
vn -0.025865 -0.933586 0.357420
vn 0.055940 -0.982778 0.176123
vn 0.139950 -0.942876 0.302324
vn 0.113205 -0.989245 0.092622
vn 0.268754 -0.954589 0.128578
vn 0.523371 -0.835841 -0.165687
vn 0.307595 -0.826585 -0.471321
vn -0.020213 -0.795706 -0.605345
vn -0.338269 -0.799088 -0.497023
vn -0.584076 -0.796364 -0.157034
vn -0.594019 -0.778230 0.203712
vn -0.372574 -0.789177 0.488251
vn -0.031144 -0.806364 0.590600
vn 0.275526 -0.825342 0.492845
vn 0.510449 -0.838586 0.190303
vn 0.793900 -0.556828 -0.244266
vn 0.450908 -0.544219 -0.707466
vn -0.043362 -0.476082 -0.878331
vn -0.485294 -0.485734 -0.727016
vn -0.823075 -0.517317 -0.234372
vn -0.828476 -0.482464 0.284351
vn -0.531302 -0.451536 0.716822
vn -0.029505 -0.458514 0.888198
vn 0.446379 -0.495305 0.745265
vn 0.796520 -0.535442 0.280815
vn 0.933008 -0.231942 -0.275134
vn 0.512807 -0.215596 -0.830992
vn -0.071689 -0.138480 -0.987767
vn -0.560241 -0.152642 -0.814144
vn -0.942364 -0.218805 -0.253129
vn -0.919270 -0.171634 0.354239
vn -0.566196 -0.048522 0.822841
vn -0.030406 -0.010330 0.999484
vn 0.497411 -0.066612 0.864954
vn 0.924360 -0.167089 0.342988
vn 0.961920 0.068693 -0.264560
vn 0.509902 0.085379 -0.855985
vn -0.101053 0.133609 -0.985869
vn -0.575665 0.123826 -0.808255
vn -0.970815 0.053549 -0.233777
vn -0.905665 0.073452 0.417583
vn -0.512007 0.207084 0.833646
vn -0.042373 0.266017 0.963037
vn 0.447270 0.236504 0.862563
vn 0.916955 0.139778 0.373705
vn 0.898752 0.381294 -0.216472
vn 0.444578 0.420874 -0.790706
vn -0.135462 0.436188 -0.889601
vn -0.526500 0.438473 -0.728381
vn -0.895456 0.388857 -0.216675
vn -0.831660 0.332656 0.444614
vn -0.440704 0.349877 0.826660
vn -0.047744 0.380832 0.923411
vn 0.381876 0.408470 0.829049
vn 0.834239 0.391363 0.388435
vn 0.673029 0.727125 -0.135352
vn 0.246960 0.785741 -0.567118
vn -0.170106 0.774263 -0.609575
vn -0.374742 0.771857 -0.513620
vn -0.621206 0.759063 -0.194749
vn -0.642441 0.672850 0.366800
vn -0.359452 0.551915 0.752452
vn -0.043822 0.524323 0.850391
vn 0.318025 0.579382 0.750451
vn 0.670733 0.645709 0.364934
vn 0.254156 0.964223 -0.075359
vn -0.028523 0.963462 -0.266321
vn -0.174748 0.943340 -0.282087
vn -0.204538 0.940976 -0.269683
vn -0.286184 0.942401 -0.173147
vn -0.353548 0.923850 0.146646
vn -0.248639 0.843234 0.476587
vn -0.060851 0.811673 0.580934
vn 0.172529 0.847037 0.502755
vn 0.346423 0.910068 0.227527
vn -0.068869 0.992984 -0.096124
vn -0.161086 0.976107 -0.145832
vn -0.165450 0.973278 -0.159234
vn -0.137755 0.975228 -0.173071
vn -0.144808 0.973009 -0.179680
vn -0.174563 0.981769 -0.075221
vn -0.153843 0.984525 0.083921
vn -0.098766 0.985499 0.137978
vn -0.033429 0.993419 0.109552
vn 0.000758 0.999980 0.006287
vn -0.015628 -0.998666 0.049222
vn -0.146641 0.973130 -0.177523
s 1
g polySurface10 Polpette
f 11/1/1 1/2/2 2/3/3 12/4/4
f 12/4/4 2/3/3 3/5/5 13/6/6
f 13/6/6 3/5/5 4/7/7 14/8/8
f 14/8/8 4/7/7 5/9/9 15/10/10
f 15/10/10 5/9/9 6/11/11 16/12/12
f 16/12/12 6/11/11 7/13/13 17/14/14
f 17/14/14 7/13/13 8/15/15 18/16/16
f 18/16/16 8/15/15 9/17/17 19/18/18
f 19/18/18 9/17/17 10/19/19 20/20/20
f 20/20/20 10/19/19 1/21/2 11/22/1
f 21/23/21 11/1/1 12/4/4 22/24/22
f 22/24/22 12/4/4 13/6/6 23/25/23
f 23/25/23 13/6/6 14/8/8 24/26/24
f 24/26/24 14/8/8 15/10/10 25/27/25
f 25/27/25 15/10/10 16/12/12 26/28/26
f 26/28/26 16/12/12 17/14/14 27/29/27
f 27/29/27 17/14/14 18/16/16 28/30/28
f 28/30/28 18/16/16 19/18/18 29/31/29
f 29/31/29 19/18/18 20/20/20 30/32/30
f 30/32/30 20/20/20 11/22/1 21/33/21
f 31/34/31 21/23/21 22/24/22 32/35/32
f 32/35/32 22/24/22 23/25/23 33/36/33
f 33/36/33 23/25/23 24/26/24 34/37/34
f 34/37/34 24/26/24 25/27/25 35/38/35
f 35/38/35 25/27/25 26/28/26 36/39/36
f 36/39/36 26/28/26 27/29/27 37/40/37
f 37/40/37 27/29/27 28/30/28 38/41/38
f 38/41/38 28/30/28 29/31/29 39/42/39
f 39/42/39 29/31/29 30/32/30 40/43/40
f 40/43/40 30/32/30 21/33/21 31/44/31
f 41/45/41 31/34/31 32/35/32 42/46/42
f 42/46/42 32/35/32 33/36/33 43/47/43
f 43/47/43 33/36/33 34/37/34 44/48/44
f 44/48/44 34/37/34 35/38/35 45/49/45
f 45/49/45 35/38/35 36/39/36 46/50/46
f 46/50/46 36/39/36 37/40/37 47/51/47
f 47/51/47 37/40/37 38/41/38 48/52/48
f 48/52/48 38/41/38 39/42/39 49/53/49
f 49/53/49 39/42/39 40/43/40 50/54/50
f 50/54/50 40/43/40 31/44/31 41/55/41
f 51/56/51 41/45/41 42/46/42 52/57/52
f 52/57/52 42/46/42 43/47/43 53/58/53
f 53/58/53 43/47/43 44/48/44 54/59/54
f 54/59/54 44/48/44 45/49/45 55/60/55
f 55/60/55 45/49/45 46/50/46 56/61/56
f 56/61/56 46/50/46 47/51/47 57/62/57
f 57/62/57 47/51/47 48/52/48 58/63/58
f 58/63/58 48/52/48 49/53/49 59/64/59
f 59/64/59 49/53/49 50/54/50 60/65/60
f 60/65/60 50/54/50 41/55/41 51/66/51
f 61/67/61 51/56/51 52/57/52 62/68/62
f 62/68/62 52/57/52 53/58/53 63/69/63
f 63/69/63 53/58/53 54/59/54 64/70/64
f 64/70/64 54/59/54 55/60/55 65/71/65
f 65/71/65 55/60/55 56/61/56 66/72/66
f 66/72/66 56/61/56 57/62/57 67/73/67
f 67/73/67 57/62/57 58/63/58 68/74/68
f 68/74/68 58/63/58 59/64/59 69/75/69
f 69/75/69 59/64/59 60/65/60 70/76/70
f 70/76/70 60/65/60 51/66/51 61/77/61
f 71/78/71 61/67/61 62/68/62 72/79/72
f 72/79/72 62/68/62 63/69/63 73/80/73
f 73/80/73 63/69/63 64/70/64 74/81/74
f 74/81/74 64/70/64 65/71/65 75/82/75
f 75/82/75 65/71/65 66/72/66 76/83/76
f 76/83/76 66/72/66 67/73/67 77/84/77
f 77/84/77 67/73/67 68/74/68 78/85/78
f 78/85/78 68/74/68 69/75/69 79/86/79
f 79/86/79 69/75/69 70/76/70 80/87/80
f 80/87/80 70/76/70 61/77/61 71/88/71
f 81/89/81 71/78/71 72/79/72 82/90/82
f 82/90/82 72/79/72 73/80/73 83/91/83
f 83/91/83 73/80/73 74/81/74 84/92/84
f 84/92/84 74/81/74 75/82/75 85/93/85
f 85/93/85 75/82/75 76/83/76 86/94/86
f 86/94/86 76/83/76 77/84/77 87/95/87
f 87/95/87 77/84/77 78/85/78 88/96/88
f 88/96/88 78/85/78 79/86/79 89/97/89
f 89/97/89 79/86/79 80/87/80 90/98/90
f 90/98/90 80/87/80 71/88/71 81/99/81
f 91/100/91 81/89/81 82/90/82 92/101/92
f 92/101/92 82/90/82 83/91/83 93/102/93
f 93/102/93 83/91/83 84/92/84 94/103/94
f 94/103/94 84/92/84 85/93/85 95/104/95
f 95/104/95 85/93/85 86/94/86 96/105/96
f 96/105/96 86/94/86 87/95/87 97/106/97
f 97/106/97 87/95/87 88/96/88 98/107/98
f 98/107/98 88/96/88 89/97/89 99/108/99
f 99/108/99 89/97/89 90/98/90 100/109/100
f 100/109/100 90/98/90 81/99/81 91/110/91
f 2/3/3 1/2/2 101/111/101
f 3/5/5 2/3/3 101/112/101
f 4/7/7 3/5/5 101/113/101
f 5/9/9 4/7/7 101/114/101
f 6/11/11 5/9/9 101/115/101
f 7/13/13 6/11/11 101/116/101
f 8/15/15 7/13/13 101/117/101
f 9/17/17 8/15/15 101/118/101
f 10/19/19 9/17/17 101/119/101
f 1/21/2 10/19/19 101/120/101
f 102/121/102 91/100/91 92/101/92
f 102/122/102 92/101/92 93/102/93
f 102/123/102 93/102/93 94/103/94
f 102/124/102 94/103/94 95/104/95
f 102/125/102 95/104/95 96/105/96
f 102/126/102 96/105/96 97/106/97
f 102/127/102 97/106/97 98/107/98
f 102/128/102 98/107/98 99/108/99
f 102/129/102 99/108/99 100/109/100
f 102/130/102 100/109/100 91/110/91
